# xmcd
# 
# Track frame offsets:
#     150
#     18057
#     34320
#     48170
#     75675
#     96802
#     114782
#     133835
# 
# Disc length: 2362
# 
# Revision: 1
# Processed by: cddbd v1.5.2PL0 Copyright (c) Steve Scherf et al.
# Submitted via: fre:ac v1.0.31
# 
DISCID=57093808
DTITLE=POCO - DELIVERIN'
DYEAR=1971
DGENRE=Country
TTITLE0=GUESS YOU MADE IT
TTITLE1=C'MON
TTITLE2=HEAR THAT MUSIC
TTITLE3=KIND WOMAN
TTITLE4=Medley - CHILD'SCLAIM TO FAME , PICKIN'UP THE PIECES
TTITLE5=YOU'D BETTER THINK TWICE
TTITLE6=A MAN LIKE ME
TTITLE7=Medley - JUST IN CASE IT HAPPENS , YES INDEED , GRAND JUNCTION , CONSEQUENTLY SO LONG
EXTD=
EXTT0=
EXTT1=
EXTT2=
EXTT3=
EXTT4=
EXTT5=
EXTT6=
EXTT7=
PLAYORDER=
